<?xml version="1.0" encoding="UTF-8" standalone="no"?>
<!-- Created with Inkscape (http://www.inkscape.org/) -->

<svg
   width="17.423538mm"
   height="17.423546mm"
   viewBox="0 0 17.423538 17.423546"
   version="1.1"
   id="svg8"
   xml:space="preserve"
   xmlns="http://www.w3.org/2000/svg"
   xmlns:svg="http://www.w3.org/2000/svg"
   xmlns:rdf="http://www.w3.org/1999/02/22-rdf-syntax-ns#"
   xmlns:cc="http://creativecommons.org/ns#"
   xmlns:dc="http://purl.org/dc/elements/1.1/"><defs
     id="defs2" /><metadata
     id="metadata5"><rdf:RDF><cc:Work
         rdf:about=""><dc:format>image/svg+xml</dc:format><dc:type
           rdf:resource="http://purl.org/dc/dcmitype/StillImage" /><dc:title /></cc:Work></rdf:RDF></metadata><g
     id="layer1"
     transform="translate(-43.458139,-40.219851)"><rect
       id="rect10"
       width="17.423544"
       height="17.423544"
       x="43.458138"
       y="40.219852"
       style="fill:#904ee2;fill-opacity:1;stroke-width:0.0967975"
       ry="2.2715468" /><path
       style="fill:none;stroke:#000000;stroke-width:0.264583px;stroke-linecap:butt;stroke-linejoin:miter;stroke-opacity:1"
       d="m 48.211993,53.630144 c 0,-1e-6 0,-2e-6 0,-3e-6 z"
       id="path4533" /><path
       id="path3875"
       style="fill:#ffffff;fill-opacity:1;stroke:none;stroke-width:0.264583px;stroke-linecap:butt;stroke-linejoin:miter;stroke-opacity:1"
       d="m 51.819576,44.051911 a 0.4023982,0.4023982 0 0 0 -0.378271,0.204122 l -2.841687,5.044136 a 0.5929015,0.5929015 0 0 0 0.516764,0.883667 h 3.074231 v 0.713652 2.517159 a 0.4023982,0.4023982 0 0 0 0.752925,0.197404 l 2.841687,-5.04362 A 0.5929015,0.5929015 0 0 0 55.268461,47.684247 H 52.19423 v -0.713135 -2.517675 a 0.4023982,0.4023982 0 0 0 -0.374654,-0.401526 z" /></g></svg>
