<?xml version="1.0" encoding="UTF-8" standalone="no"?>
<!-- Created with Inkscape (http://www.inkscape.org/) -->

<svg
   width="17.423544mm"
   height="17.423544mm"
   viewBox="0 0 17.423544 17.423544"
   version="1.1"
   id="svg8"
   xmlns="http://www.w3.org/2000/svg"
   xmlns:svg="http://www.w3.org/2000/svg"
   xmlns:rdf="http://www.w3.org/1999/02/22-rdf-syntax-ns#"
   xmlns:cc="http://creativecommons.org/ns#"
   xmlns:dc="http://purl.org/dc/elements/1.1/">
  <defs
     id="defs2" />
  <metadata
     id="metadata5">
    <rdf:RDF>
      <cc:Work
         rdf:about="">
        <dc:format>image/svg+xml</dc:format>
        <dc:type
           rdf:resource="http://purl.org/dc/dcmitype/StillImage" />
        <dc:title />
      </cc:Work>
    </rdf:RDF>
  </metadata>
  <g
     id="layer1"
     transform="translate(-118.49406,-58.260548)">
    <rect
       id="rect10"
       width="17.423544"
       height="17.423544"
       x="118.49406"
       y="58.260548"
       style="fill:#63ba3c;fill-opacity:1;stroke-width:0.0967975"
       ry="2.2715468" />
    <path
       style="fill:none;stroke:#000000;stroke-width:0.264583px;stroke-linecap:butt;stroke-linejoin:miter;stroke-opacity:1"
       d="m 123.31473,71.537202 c 0,-10e-7 0,-2e-6 0,-3e-6 z"
       id="path4533" />
    <path
       style="fill:#ffffff;fill-opacity:1;stroke:none;stroke-width:1px;stroke-linecap:butt;stroke-linejoin:miter;stroke-opacity:1"
       d="m 469.59375,233.90039 c -3.26736,0 -3.52148,2.96875 -3.52148,2.96875 v 33.50781 c 0,0 0.0498,1.29525 2.13671,1.23633 0.77923,-0.022 1.95313,-1.2832 1.95313,-1.2832 l 10.48047,-11.49024 10.48047,11.49024 c 0,0 1.17585,1.26121 1.95507,1.2832 2.08695,0.0589 2.13672,-1.23633 2.13672,-1.23633 v -33.50781 c 0,0 -0.25607,-2.96875 -3.52343,-2.96875 h -11.04883 z"
       transform="scale(0.26458333)"
       id="path4535" />
  </g>
</svg>
